<svg xmlns="http://www.w3.org/2000/svg" viewBox="0 0 24 24"><path fill="#303C42" d="M12 0C6.486 0 2 4.486 2 10v13.5a.5.5 0 0 0 .5.5c1.035 0 1.558-.66 1.978-1.19.41-.517.668-.81 1.193-.81s.783.293 1.194.81c.42.53.944 1.19 1.978 1.19 1.033 0 1.555-.66 1.974-1.19.41-.517.667-.81 1.192-.81.523 0 .78.292 1.19.81.42.53.942 1.19 1.975 1.19s1.555-.66 1.973-1.19c.41-.517.667-.81 1.192-.81.522 0 .78.292 1.187.81.42.53.94 1.19 1.974 1.19a.5.5 0 0 0 .5-.5V10c0-5.514-4.486-10-10-10z"/><path fill="#4DD0E1" d="M21 22.879c-.238-.131-.434-.367-.688-.69-.42-.53-.94-1.189-1.973-1.189-1.033 0-1.556.66-1.976 1.19-.409.518-.666.81-1.19.81-.524 0-.78-.293-1.19-.81-.42-.53-.941-1.19-1.974-1.19s-1.556.66-1.975 1.19c-.41.517-.667.81-1.191.81-.526 0-.783-.293-1.195-.81-.42-.53-.943-1.19-1.977-1.19s-1.557.66-1.977 1.189c-.257.324-.454.56-.694.691V10c0-4.962 4.037-9 9-9s9 4.038 9 9v12.879z"/><path fill="#FFF" d="M3 10v12.88c.24-.131.437-.367.694-.691.22-.278.47-.588.806-.824V11.023C4.5 5.496 7.864 1 12 1c-4.963 0-9 4.038-9 9z" opacity=".2"/><path d="M12 1c4.136 0 7.5 4.496 7.5 10.023V21.36c.338.236.59.55.812.829.254.322.45.558.688.689V10c0-4.962-4.037-9-9-9z" opacity=".1"/><path fill="#303C42" d="M8.5 6A2.503 2.503 0 0 0 6 8.5v3C6 12.878 7.121 14 8.5 14s2.5-1.122 2.5-2.5v-3C11 7.122 9.879 6 8.5 6z"/><path fill="#FFF" d="M8.5 13c-.827 0-1.5-.673-1.5-1.5v-3C7 7.673 7.673 7 8.5 7s1.5.673 1.5 1.5v.592C9.42 9.3 9 9.85 9 10.5a1.5 1.5 0 0 0 .942 1.39A1.498 1.498 0 0 1 8.5 13z"/><path fill="#303C42" d="M15.5 6A2.503 2.503 0 0 0 13 8.5v3c0 1.378 1.121 2.5 2.5 2.5s2.5-1.122 2.5-2.5v-3C18 7.122 16.879 6 15.5 6z"/><path fill="#FFF" d="M15.5 13c-.827 0-1.5-.673-1.5-1.5v-3c0-.827.673-1.5 1.5-1.5s1.5.673 1.5 1.5v.592c-.58.207-1 .757-1 1.408a1.5 1.5 0 0 0 .942 1.39A1.498 1.498 0 0 1 15.5 13z"/><linearGradient id="a" x1="1.511" x2="24.001" y1="8.833" y2="19.32" gradientUnits="userSpaceOnUse"><stop offset="0" stop-color="#FFF" stop-opacity=".2"/><stop offset="1" stop-color="#FFF" stop-opacity="0"/></linearGradient><path fill="url(#a)" d="M12 0C6.486 0 2 4.486 2 10v13.5a.5.5 0 0 0 .5.5c1.035 0 1.558-.66 1.978-1.19.41-.517.668-.81 1.193-.81s.783.293 1.194.81c.42.53.944 1.19 1.978 1.19 1.033 0 1.555-.66 1.974-1.19.41-.517.667-.81 1.192-.81.523 0 .78.292 1.19.81.42.53.942 1.19 1.975 1.19s1.555-.66 1.973-1.19c.41-.517.667-.81 1.192-.81.522 0 .78.292 1.187.81.42.53.94 1.19 1.974 1.19a.5.5 0 0 0 .5-.5V10c0-5.514-4.486-10-10-10z"/></svg>