<?xml version="1.0" standalone="no"?>
<!DOCTYPE svg PUBLIC "-//W3C//DTD SVG 20010904//EN"
 "http://www.w3.org/TR/2001/REC-SVG-20010904/DTD/svg10.dtd">
<svg version="1.0" xmlns="http://www.w3.org/2000/svg"
 width="512.000000pt" height="512.000000pt" viewBox="0 0 512.000000 512.000000"
 preserveAspectRatio="xMidYMid meet">

<g transform="translate(0.000000,512.000000) scale(0.100000,-0.100000)"
fill="#000000" stroke="none">
<path d="M2415 5114 c-794 -66 -1461 -618 -1668 -1384 -64 -235 -61 -143 -64
-1740 -3 -1310 -2 -1463 12 -1535 64 -316 408 -537 656 -423 30 14 87 52 127
85 136 111 218 112 351 3 40 -33 99 -72 130 -87 49 -24 68 -28 146 -28 110 0
162 21 275 112 140 112 218 112 352 2 96 -78 157 -108 241 -116 100 -9 176 15
263 82 189 147 262 152 409 26 123 -106 237 -133 376 -92 205 62 346 213 400
431 11 45 14 234 14 1008 l0 954 -28 24 c-35 30 -59 30 -94 0 l-28 -24 -5
-974 -5 -973 -22 -55 c-61 -148 -205 -255 -343 -254 -76 0 -103 12 -186 84
-33 28 -84 63 -114 78 -48 24 -67 27 -150 27 -83 0 -102 -3 -150 -27 -30 -15
-88 -54 -128 -88 -141 -116 -210 -110 -396 35 -85 66 -162 90 -261 83 -82 -7
-149 -39 -244 -117 -132 -107 -212 -109 -341 -6 -99 79 -121 92 -184 110 -79
23 -175 16 -247 -17 -30 -14 -88 -53 -129 -86 -95 -79 -149 -94 -241 -68 -157
43 -270 171 -299 337 -8 46 -10 474 -7 1499 3 1247 6 1445 19 1515 77 393 227
685 488 945 267 267 593 431 975 491 102 16 386 16 490 0 682 -105 1230 -588
1416 -1248 48 -173 51 -209 58 -655 6 -422 6 -428 28 -449 28 -28 79 -28 107
1 21 20 21 28 20 408 -1 418 -9 505 -60 702 -174 662 -697 1185 -1349 1349
-175 44 -445 68 -610 55z"/>
<path d="M1870 3910 c-17 -17 -20 -33 -20 -109 0 -85 1 -91 26 -110 15 -12 33
-21 40 -21 32 0 64 25 75 58 16 48 6 158 -16 182 -24 26 -79 26 -105 0z"/>
<path d="M3140 3908 c-17 -18 -20 -35 -20 -105 0 -76 2 -86 25 -108 13 -14 36
-25 50 -25 14 0 37 11 50 25 22 21 25 33 25 103 0 65 -4 84 -21 106 -27 34
-79 36 -109 4z"/>
<path d="M2511 3859 c-163 -31 -255 -219 -177 -366 61 -117 220 -166 337 -105
256 134 124 524 -160 471z"/>
</g>
</svg>
